<svg width="16" height="16" viewBox="0 0 16 16" fill="none" xmlns="http://www.w3.org/2000/svg">
    <path d="M1 3C1 2.46957 1.21071 1.96086 1.58579 1.58579C1.96086 1.21071 2.46957 1 3 1H13C13.5304 1 14.0391 1.21071 14.4142 1.58579C14.7893 1.96086 15 2.46957 15 3V13C15 13.5304 14.7893 14.0391 14.4142 14.4142C14.0391 14.7893 13.5304 15 13 15H3C2.46957 15 1.96086 14.7893 1.58579 14.4142C1.21071 14.0391 1 13.5304 1 13V3Z"
          fill="#00D26A"/>
    <path d="M6.62065 11.4999C6.42915 11.4999 6.23765 11.4284 6.09115 11.2849L3.21915 8.4639C3.14979 8.39623 3.09466 8.31536 3.05703 8.22605C3.01939 8.13675 3 8.04082 3 7.9439C3 7.84699 3.01939 7.75106 3.05703 7.66176C3.09466 7.57245 3.14979 7.49158 3.21915 7.4239C3.36081 7.2858 3.55081 7.2085 3.74865 7.2085C3.94649 7.2085 4.1365 7.2858 4.27815 7.4239L6.62065 9.7244L11.7212 4.7154C11.8628 4.5773 12.0528 4.5 12.2507 4.5C12.4485 4.5 12.6385 4.5773 12.7802 4.7154C12.8497 4.78298 12.905 4.86381 12.9427 4.95313C12.9805 5.04245 13 5.13843 13 5.2354C13 5.33238 12.9805 5.42836 12.9427 5.51768C12.905 5.607 12.8497 5.68783 12.7802 5.7554L7.15015 11.2844C7.00902 11.4233 6.81868 11.5008 6.62065 11.4999Z"
          fill="#F4F4F4"/>
</svg>
