<svg width="27" height="27" viewBox="0 0 27 27" fill="none" xmlns="http://www.w3.org/2000/svg">
<path d="M17.7187 13.5C16.6345 13.5 15.5861 13.0159 14.7656 12.1373C13.9677 11.2804 13.4804 10.1377 13.3945 8.92055C13.3027 7.62223 13.6987 6.42832 14.5093 5.5582C15.3198 4.68809 16.4531 4.21875 17.7187 4.21875C18.9754 4.21875 20.1118 4.69652 20.9197 5.56453C21.7355 6.44098 22.1326 7.63277 22.0408 8.92002C21.9527 10.1387 21.466 11.2809 20.6697 12.1368C19.8513 13.0159 18.8034 13.5 17.7187 13.5ZM24.6707 22.7812H10.7672C10.5437 22.7824 10.3229 22.7323 10.1217 22.6348C9.92062 22.5372 9.74455 22.3949 9.60709 22.2186C9.46128 22.0275 9.36059 21.8059 9.31255 21.5704C9.26451 21.3348 9.27038 21.0915 9.32971 20.8586C9.77373 19.0756 10.8738 17.5969 12.5106 16.5829C13.9635 15.6832 15.8129 15.1875 17.7187 15.1875C19.662 15.1875 21.4628 15.6621 22.9241 16.5612C24.5647 17.57 25.6663 19.0571 26.1082 20.8617C26.1668 21.0948 26.172 21.3382 26.1234 21.5736C26.0749 21.809 25.9738 22.0303 25.8277 22.2212C25.6903 22.3967 25.5147 22.5384 25.3141 22.6354C25.1136 22.7325 24.8935 22.7824 24.6707 22.7812ZM7.75189 13.7109C5.89617 13.7109 4.26457 11.9855 4.11322 9.86502C4.03834 8.77869 4.37689 7.7741 5.06244 7.0374C5.7406 6.30809 6.69721 5.90625 7.75189 5.90625C8.80658 5.90625 9.7558 6.3102 10.4377 7.04373C11.1285 7.78623 11.466 8.78871 11.3869 9.86607C11.2355 11.986 9.60445 13.7109 7.75189 13.7109ZM11.2144 15.3694C10.2868 14.9159 9.08291 14.6892 7.75242 14.6892C6.19887 14.6892 4.69014 15.0942 3.50361 15.8293C2.15836 16.6641 1.25344 17.8796 0.887987 19.3472C0.834506 19.5583 0.829448 19.7787 0.87319 19.9921C0.916933 20.2054 1.00834 20.4061 1.14058 20.5791C1.26606 20.7401 1.42682 20.8703 1.61048 20.9595C1.79415 21.0488 1.99583 21.0947 2.20002 21.0938H8.05353C8.15233 21.0937 8.24799 21.059 8.32383 20.9957C8.39968 20.9324 8.45089 20.8445 8.46855 20.7473C8.47435 20.7141 8.48174 20.6808 8.49017 20.6481C8.93736 18.852 9.98519 17.3343 11.5335 16.228C11.5904 16.1869 11.6362 16.1323 11.6667 16.0691C11.6972 16.0058 11.7115 15.936 11.7082 15.8659C11.7049 15.7958 11.6841 15.7276 11.6478 15.6675C11.6115 15.6074 11.5608 15.5574 11.5003 15.5218C11.4175 15.4733 11.3225 15.4222 11.2144 15.3694Z" fill="black"/>
</svg>
