<svg width="23" height="17" viewBox="0 0 23 17" fill="none" xmlns="http://www.w3.org/2000/svg">
<path d="M2.87466 5.90687C2.87455 5.07294 3.08174 4.25206 3.47759 3.51806C3.87343 2.78406 4.44552 2.15997 5.14239 1.70192C5.83926 1.24386 6.63906 0.966208 7.46986 0.893933C8.30065 0.821657 9.13638 0.957024 9.90188 1.28786C10.6674 1.61869 11.3386 2.13462 11.8553 2.78923C12.3719 3.44385 12.7178 4.21662 12.8617 5.03804C13.0056 5.85946 12.9431 6.70378 12.6797 7.49504C12.4164 8.2863 11.9605 8.99969 11.353 9.57106C12.4983 10.1271 13.4927 10.951 14.2519 11.9729C15.0111 12.9949 15.5128 14.1848 15.7144 15.4418C15.7366 15.5817 15.731 15.7246 15.698 15.8623C15.6649 16 15.6051 16.1299 15.5219 16.2445C15.4386 16.3591 15.3336 16.4562 15.2129 16.5302C15.0922 16.6042 14.958 16.6537 14.8181 16.6759C14.6782 16.6981 14.5354 16.6925 14.3976 16.6595C14.2599 16.6264 14.13 16.5666 14.0155 16.4833C13.9009 16.4001 13.8038 16.2951 13.7298 16.1744C13.6557 16.0536 13.6062 15.9195 13.584 15.7796C13.3684 14.4288 12.6783 13.1991 11.6376 12.3114C10.5969 11.4236 9.27381 10.9359 7.90591 10.9359C6.538 10.9359 5.2149 11.4236 4.1742 12.3114C3.13351 13.1991 2.44339 14.4288 2.22778 15.7796C2.20551 15.9195 2.1559 16.0536 2.08179 16.1743C2.00767 16.295 1.91051 16.4 1.79585 16.4831C1.68119 16.5663 1.55127 16.6261 1.41351 16.659C1.27575 16.692 1.13285 16.6975 0.992968 16.6752C0.853086 16.6529 0.718961 16.6033 0.598251 16.5292C0.47754 16.4551 0.37261 16.3579 0.289449 16.2433C0.206288 16.1286 0.146526 15.9987 0.113576 15.8609C0.0806248 15.7232 0.0751303 15.5803 0.0974057 15.4404C0.298329 14.1834 0.79976 12.9936 1.55908 11.972C2.31839 10.9504 3.31315 10.1273 4.45878 9.5725C3.95853 9.10196 3.55991 8.53399 3.28747 7.90358C3.01503 7.27316 2.87454 6.59364 2.87466 5.90687ZM15.8122 3.75062C16.6474 3.7512 17.4644 3.99422 18.1642 4.45018C18.864 4.90613 19.4163 5.55542 19.7542 6.31921C20.0922 7.08301 20.2011 7.92848 20.0678 8.75298C19.9345 9.57748 19.5648 10.3456 19.0034 10.964C19.8789 11.3977 20.6567 12.0053 21.2895 12.7498C21.9222 13.4942 22.3965 14.3598 22.6834 15.2937C22.7404 15.475 22.7484 15.668 22.7066 15.8534C22.6649 16.0387 22.5748 16.2097 22.4456 16.3489C22.3164 16.4882 22.1527 16.5908 21.971 16.6464C21.7893 16.7019 21.5962 16.7084 21.4112 16.6651C21.2263 16.6223 21.0559 16.5315 20.9173 16.4017C20.7787 16.272 20.6769 16.108 20.622 15.9262C20.364 15.093 19.8944 14.3409 19.259 13.7433C18.6236 13.1457 17.8441 12.723 16.9967 12.5165C16.7613 12.4597 16.5518 12.3252 16.4021 12.1349C16.2525 11.9445 16.1712 11.7093 16.1715 11.4671V10.9611C16.1714 10.7604 16.2273 10.5636 16.333 10.393C16.4386 10.2223 16.5898 10.0845 16.7695 9.99512C17.2053 9.77914 17.5553 9.42217 17.7626 8.98218C17.9699 8.5422 18.0224 8.04504 17.9115 7.57148C17.8006 7.09791 17.5328 6.67574 17.1517 6.37355C16.7706 6.07136 16.2985 5.9069 15.8122 5.90687C15.5262 5.90687 15.252 5.79328 15.0498 5.59109C14.8476 5.38891 14.734 5.11468 14.734 4.82875C14.734 4.54281 14.8476 4.26858 15.0498 4.0664C15.252 3.86421 15.5262 3.75062 15.8122 3.75062ZM7.90591 3.03187C7.52304 3.02321 7.14231 3.09113 6.78606 3.23164C6.42981 3.37215 6.10522 3.58242 5.83134 3.8501C5.55747 4.11778 5.33984 4.43748 5.19123 4.79043C5.04261 5.14337 4.966 5.52246 4.96591 5.90542C4.96581 6.28838 5.04223 6.6675 5.19067 7.02052C5.33911 7.37354 5.55658 7.69335 5.83032 7.96117C6.10405 8.22898 6.42854 8.43941 6.78472 8.5801C7.1409 8.72079 7.5216 8.7889 7.90447 8.78043C8.65565 8.76382 9.37048 8.4538 9.89594 7.91673C10.4214 7.37966 10.7157 6.65822 10.7159 5.90685C10.7161 5.15549 10.4221 4.43391 9.89694 3.89657C9.37175 3.35924 8.65708 3.04886 7.90591 3.03187Z" fill="black"/>
</svg>
