<svg width="22" height="18" viewBox="0 0 22 18" fill="none" xmlns="http://www.w3.org/2000/svg">
<path d="M21.2288 4.20052C21.2288 2.1901 16.5622 0.554688 10.8122 0.554688C5.06217 0.554688 0.395508 2.1901 0.395508 4.20052C0.395508 6.08594 4.51009 7.64844 9.77051 7.82552V12.013H8.05176C7.19759 12.013 6.43717 12.5339 6.11426 13.3255L4.56217 17.2214H6.64551L7.89551 14.0964H13.7288L14.9788 17.2214H17.0622L15.4997 13.3255C15.1872 12.5339 14.4163 12.013 13.5726 12.013H11.8538V7.82552C17.1143 7.64844 21.2288 6.08594 21.2288 4.20052ZM10.8122 2.63802C15.0309 2.63802 17.833 3.53385 18.8538 4.20052C17.833 4.86719 15.0309 5.76302 10.8122 5.76302C6.59342 5.76302 3.79134 4.86719 2.77051 4.20052C3.79134 3.53385 6.59342 2.63802 10.8122 2.63802Z" fill="black"/>
</svg>
